<?xml version="1.0" encoding="UTF-8" standalone="no"?>
<!DOCTYPE svg PUBLIC "-//W3C//DTD SVG 1.1//EN" "http://www.w3.org/Graphics/SVG/1.1/DTD/svg11.dtd">
<svg width="100%" height="100%" viewBox="0 0 446 570" version="1.1" xmlns="http://www.w3.org/2000/svg" xmlns:xlink="http://www.w3.org/1999/xlink" xml:space="preserve" xmlns:serif="http://www.serif.com/" style="fill-rule:evenodd;clip-rule:evenodd;stroke-linecap:round;stroke-linejoin:round;stroke-miterlimit:10;">
    <g id="ArtBoard1" transform="matrix(1,0,0,1,-197.875,-16.5825)">
        <rect x="197.875" y="16.582" width="445.208" height="569.014" style="fill:none;"/>
        <g transform="matrix(1,0,0,1,0.874922,0.582499)">
            <g>
                <path d="M548.22,213.94C575.747,209.231 570.343,211.303 571.792,195.366C573.15,180.428 576.735,163.899 579.268,127.287C575.385,127.891 570.978,127.998 566.351,127.494C563.45,127.178 560.687,126.643 558.123,125.939C557.642,145.014 553.682,191.744 553.682,191.744L516.744,197.021C518.396,204.058 519.682,211.249 520.673,218.52C525.193,217.81 533.483,216.46 548.223,213.94L548.22,213.94Z" style="fill:rgb(163,157,143);fill-rule:nonzero;stroke:black;stroke-width:1px;"/>
                <path d="M520.67,218.52C519.679,211.249 518.394,204.059 516.741,197.021C506.948,155.317 484.071,119.118 430.399,105.158C419.479,102.318 347.965,108.716 292.219,118.798C236.473,128.88 212.56,134.856 212.732,140.456C234.228,130.599 346.362,144.364 346.362,365.576L524.282,312.133C523.822,284.003 525.042,250.513 520.672,218.513L520.67,218.52Z" style="fill:rgb(211,52,56);fill-rule:nonzero;stroke:black;stroke-width:2px;"/>
                <path d="M448.78,401.09L621.64,340.7L524.29,312.13L346.36,365.57L448.78,401.09Z" style="fill:rgb(211,52,56);fill-rule:nonzero;stroke:black;stroke-width:2px;"/>
                <path d="M448.78,401.09L346.36,365.575C346.36,144.365 234.22,130.595 212.73,140.455C212.73,140.455 213.822,176.099 215.302,224.172C218.203,318.413 222.594,460.432 223.17,475.412C224.04,498.033 218.3,501.774 240.202,510.618C262.104,519.462 344.972,551.365 446.642,575.365C448.115,569.88 449.081,559.582 449.689,546.633C452.109,494.973 448.779,401.073 448.779,401.073L448.78,401.09ZM277.03,191.81C301.844,234.415 327.126,252.674 327.126,252.674L328.999,294.811C314.953,298.088 298.567,297.639 298.567,297.639C282.649,287.789 267.198,276.084 264.389,269.061C261.58,262.038 248.939,199.301 248.939,199.301L277.029,191.811L277.03,191.81Z" style="fill:rgb(168,31,35);fill-rule:nonzero;stroke:black;stroke-width:2px;"/>
                <path d="M221.14,211.05C228.764,256.179 268.44,360.95 301.186,417.72C277.172,390.068 250.248,342.039 215.307,224.18C218.208,318.421 222.599,460.44 223.175,475.42C224.045,498.041 218.305,501.782 240.207,510.626C262.109,519.47 344.977,551.373 446.647,575.373C448.12,569.888 449.086,559.59 449.694,546.641C317.854,430.021 271.254,338.491 221.134,211.041L221.14,211.05Z" style="fill:rgb(131,22,26);fill-rule:nonzero;"/>
                <path d="M621.64,340.7L448.79,401.089C448.79,401.089 452.113,494.993 449.692,546.629C449.085,559.578 448.118,569.876 446.645,575.361C484.311,562.695 590.315,518.028 604.975,511.361C619.635,504.694 619.095,502.692 619.538,491.487C619.981,480.282 621.252,460.344 622.138,423.373C622.808,395.513 623.008,364.343 621.648,340.693L621.64,340.7Z" style="fill:rgb(211,52,56);fill-rule:nonzero;stroke:black;stroke-width:2px;"/>
                <path d="M465.93,463.75L465.93,480.034C484.693,506.23 524.939,522.166 557.032,518.269L557.411,499.524L558.681,436.844L465.931,463.754L465.93,463.75Z" style="fill:rgb(194,143,44);fill-rule:nonzero;"/>
                <path d="M465.93,480.03L465.93,560.035L556.909,524.281L557.031,518.265C524.941,522.155 484.691,506.225 465.931,480.025L465.93,480.03Z" style="fill:rgb(231,176,41);fill-rule:nonzero;"/>
                <path d="M327.12,252.68L297.156,259.235L298.561,297.645C298.561,297.645 314.947,298.095 328.993,294.817L327.123,252.677L327.12,252.68Z" style="fill:rgb(231,176,41);fill-rule:nonzero;stroke:black;stroke-width:1px;"/>
                <path d="M297.16,259.23L327.124,252.675C327.124,252.675 301.842,234.416 277.028,191.811L248.937,199.302C270.017,235.342 297.167,259.222 297.167,259.222L297.16,259.23ZM278.44,214.4L302.565,247.803L297.369,250.216L273.75,215.513L278.45,214.403L278.44,214.4Z" style="fill:rgb(231,176,41);fill-rule:nonzero;stroke:black;stroke-width:1px;"/>
                <path d="M297.16,259.23C297.16,259.23 270.005,235.353 248.937,199.302C227.869,163.251 261.578,262.039 264.387,269.062C267.196,276.085 282.646,287.79 298.565,297.64L297.155,259.23L297.16,259.23Z" style="fill:rgb(176,127,44);fill-rule:nonzero;stroke:black;stroke-width:1px;"/>
                <path d="M302.57,247.81L278.44,214.4L273.75,215.52L297.37,250.22L302.57,247.81Z" style="fill:rgb(193,148,45);fill-rule:nonzero;stroke:black;stroke-width:1px;"/>
                <path d="M585.49,108.93C585.54,108.475 585.507,108.021 585.415,107.571C584.26,109.655 583.11,111.577 581.997,113.344C584.007,112.214 585.297,110.704 585.487,108.934L585.49,108.93Z" style="fill:white;fill-rule:nonzero;stroke:black;stroke-width:2px;"/>
                <path d="M553.94,105.49C553.805,106.732 554.234,107.965 555.086,109.122C554.823,107.642 554.527,106.084 554.199,104.428C554.069,104.768 553.979,105.118 553.939,105.488L553.94,105.49Z" style="fill:white;fill-rule:nonzero;stroke:black;stroke-width:2px;"/>
                <path d="M585.68,107.09C585.593,107.248 585.506,107.415 585.42,107.571C585.512,108.021 585.545,108.475 585.495,108.93C585.303,110.701 584.013,112.213 582.002,113.344C578.914,115.08 574.11,115.911 568.835,115.336C562.531,114.649 557.317,112.151 555.09,109.125C554.237,107.967 553.809,106.734 553.944,105.493C553.984,105.128 554.074,104.774 554.204,104.431C554.104,103.93 554.001,103.416 553.895,102.896C546.866,104.437 542.013,107.737 541.546,112.024C540.94,117.593 547.916,123.132 558.123,125.937C560.686,126.641 563.449,127.176 566.351,127.492C570.978,127.996 575.385,127.889 579.268,127.285C587.517,126.002 593.388,122.468 593.904,117.73C594.304,113.86 591.074,110.01 585.664,107.08L585.68,107.09Z" style="fill:rgb(144,26,29);fill-rule:nonzero;stroke:black;stroke-width:1px;"/>
                <path d="M573.8,28.195C551.8,28.445 544.093,49.695 547.696,70.945C550.072,84.954 552.29,95.002 553.885,102.894C553.99,103.414 554.094,103.928 554.194,104.429C554.522,106.085 554.818,107.643 555.081,109.123C557.309,112.149 562.522,114.648 568.826,115.334C574.101,115.909 578.905,115.079 581.993,113.342C583.106,111.575 584.256,109.654 585.411,107.569C585.497,107.412 585.584,107.246 585.671,107.088C591.365,96.699 597.002,82.813 597.8,68.445C598.78,50.453 595.78,27.953 573.78,28.203L573.8,28.195Z" style="fill:rgb(144,26,29);fill-rule:nonzero;stroke:black;stroke-width:1px;"/>
                <path d="M557.41,499.52L557.031,518.265L556.909,524.281L465.93,560.035L465.93,547.617C462.752,548.933 459.519,550.467 456.18,552.334C453.992,550.425 451.827,548.522 449.684,546.627C449.077,559.576 448.11,569.874 446.637,575.359C484.303,562.693 590.307,518.026 604.967,511.359C619.627,504.692 619.087,502.69 619.53,491.485C619.973,480.28 621.244,460.342 622.13,423.371C595.99,458.781 574.97,482.841 557.42,499.521L557.41,499.52Z" style="fill:rgb(131,22,26);fill-rule:nonzero;"/>
                <g>
                    <path d="M465.93,463.75L465.93,560.04L556.91,524.28L557.03,518.27L557.41,499.52L558.68,436.84L465.93,463.75Z" style="fill:none;fill-rule:nonzero;stroke:black;stroke-width:1px;"/>
                    <path d="M446.64,575.36C448.113,569.875 449.079,559.577 449.687,546.628C452.108,494.989 448.785,401.088 448.785,401.088" style="fill:none;fill-rule:nonzero;stroke:black;stroke-width:2px;"/>
                    <path d="M505.72,452.21C506.051,484.302 537.105,518.074 551.966,526.231" style="fill:none;fill-rule:nonzero;stroke:black;stroke-width:2px;"/>
                </g>
                <g>
                    <path d="M520.67,218.52C525.195,217.81 533.483,216.461 548.217,213.94C575.697,209.239 570.36,211.294 571.782,195.445C559.271,206.007 533.525,212.001 519.968,213.749C520.208,215.339 520.448,216.929 520.668,218.529L520.67,218.52Z" style="fill:rgb(126,120,107);fill-rule:nonzero;"/>
                    <path d="M579.26,127.28C575.377,127.884 570.97,127.991 566.343,127.487C563.442,127.171 560.679,126.636 558.115,125.932C557.985,131.072 557.602,138.221 557.113,145.922C564.336,149.24 570.282,149.919 577.228,151.12C577.948,144.22 578.648,136.37 579.268,127.27L579.26,127.28Z" style="fill:rgb(126,120,107);fill-rule:nonzero;"/>
                </g>
                <path d="M471.02,275.5C453.569,279.958 432.69,285.096 413.622,289.726C396.786,293.814 381.373,297.504 371,299.976C362.71,301.952 357.635,303.15 357.635,303.15C357.595,302.566 357.546,301.97 357.502,301.38C354.983,307.625 361.694,310.182 370.853,309.543C381.237,308.818 443.782,293.847 482.663,280.806C515.004,269.959 514.594,263.79 510.345,258.345C510.116,260.449 509.859,262.553 509.553,264.653C506.493,266.183 491.003,270.393 471.013,275.503L471.02,275.5Z" style="fill:rgb(173,31,37);fill-rule:nonzero;"/>
                <g>
                    <path d="M277.03,149.3C275.547,148.061 274.044,146.893 272.528,145.808C262.236,138.443 251.411,134.541 243.251,133.024C226.707,129.948 236.728,138.466 244.212,140.755C260.505,145.138 280.152,155.809 297.846,177.577C292.716,165.367 285.216,156.137 277.036,149.297L277.03,149.3Z" style="fill:rgb(242,139,139);fill-rule:nonzero;"/>
                    <path d="M272.53,145.81C274.047,146.895 275.55,148.063 277.032,149.302C298.583,147.96 314.081,143.491 339.635,138.561C362.718,134.107 434.252,123.052 468.825,121.872C465.54,119.681 462.046,117.632 458.358,115.719C426.817,117.028 382.941,124.257 357.168,128.527C329.698,133.077 303.178,140.757 272.538,145.807L272.53,145.81Z" style="fill:rgb(242,139,139);fill-rule:nonzero;"/>
                    <path d="M401.42,384.66L448.78,401.09L451.91,399.99L401.42,384.66Z" style="fill:rgb(242,139,139);fill-rule:nonzero;"/>
                    <path d="M451.91,399.99L448.779,401.084C448.779,401.084 449.948,434.127 450.394,471.79L452.755,402.538L620.185,344.081L621.631,340.695L451.901,399.995L451.91,399.99Z" style="fill:rgb(242,139,139);fill-rule:nonzero;"/>
                </g>
                <path d="M555.09,109.12C556.97,111.674 560.979,113.847 565.972,114.877C588.638,112.276 577.643,90.692 572.415,83.359C567.187,76.026 566.309,62.359 560.976,52.026C555.643,41.693 548.284,49.264 547.305,54.315C546.596,59.592 546.742,65.265 547.705,70.942C550.081,84.951 552.299,94.999 553.894,102.891C553.999,103.411 554.103,103.925 554.203,104.426C554.533,106.086 554.823,107.646 555.093,109.126L555.09,109.12Z" style="fill:rgb(105,16,17);fill-rule:nonzero;"/>
                <ellipse cx="582.08" cy="45.838" rx="5.583" ry="8.908" style="fill:rgb(242,139,139);"/>
                <path d="M398.88,194.98C404.566,211.518 408.317,230.95 410.797,253.663C433.495,248.938 453.847,244.926 470.73,241.407C469.4,220.154 465.832,201.178 460.085,183.718C441.105,187.158 419.985,191.068 398.885,194.988L398.88,194.98Z" style="fill:white;fill-rule:nonzero;"/>
                <path d="M399.01,195.06C400.789,199.696 402.327,204.432 403.662,209.223C404.99,214.056 406.182,218.931 407.184,223.844C408.194,228.756 409.049,233.697 409.784,238.655C410.534,243.611 411.138,248.587 411.624,253.572L410.62,252.843L440.691,247.206C445.695,246.232 450.685,245.19 455.673,244.141C460.667,243.12 465.636,241.972 470.611,240.87L470.175,241.441C469.79,236.563 469.241,231.701 468.626,226.854C467.999,222.007 467.22,217.184 466.331,212.383C465.433,207.585 464.378,202.817 463.159,198.094C461.927,193.375 460.594,188.682 459.06,184.053L460.268,184.772L444.947,187.467L429.613,190.095C424.505,190.988 419.38,191.793 414.264,192.65C409.194,193.49 404.104,194.29 399.014,195.07L399.01,195.06ZM398.86,194.88C403.928,193.768 409.001,192.682 414.082,191.637C419.165,190.605 424.239,189.524 429.331,188.535L444.6,185.539L459.893,182.662C460.423,182.562 460.937,182.876 461.099,183.376L461.101,183.381C462.63,188.065 464.016,192.798 465.17,197.588C466.337,202.374 467.335,207.199 468.177,212.048C469.03,216.896 469.679,221.777 470.198,226.666C470.729,231.555 471.044,236.463 471.275,241.37L471.275,241.385C471.288,241.656 471.098,241.891 470.839,241.941C465.833,242.918 460.813,243.814 455.817,244.826C450.814,245.809 445.811,246.789 440.823,247.841C430.847,249.945 420.916,252.269 410.965,254.481C410.519,254.58 410.076,254.299 409.977,253.853L409.963,253.774L409.961,253.752C409.359,248.796 408.725,243.848 408.038,238.907C407.337,233.969 406.556,229.042 405.67,224.135C404.776,219.229 403.817,214.333 402.653,209.481C401.507,204.625 400.231,199.798 398.782,195.011C398.765,194.956 398.796,194.899 398.851,194.883C398.841,194.883 398.851,194.883 398.851,194.883L398.86,194.88Z" style="fill-rule:nonzero;"/>
                <path d="M470.73,241.4C488.497,237.697 502.421,234.538 511.2,231.666C510.346,212.503 506.314,193.808 499.224,176.851C488.142,178.695 474.754,181.058 460.085,183.711C465.835,201.161 469.405,220.141 470.735,241.391L470.73,241.4Z" style="fill:white;fill-rule:nonzero;"/>
                <path d="M470.82,241.28C474.143,240.413 477.481,239.621 480.807,238.777C484.181,237.97 487.55,237.146 490.911,236.294C497.631,234.602 504.365,232.931 510.917,230.823L510.302,231.712C509.885,222.378 509.069,213.024 507.244,203.816C506.337,199.214 505.142,194.67 503.709,190.205C502.306,185.729 500.607,181.351 498.719,177.067L499.309,177.393L460.271,184.764L461.091,183.386C462.636,188.065 464.015,192.801 465.166,197.591C466.351,202.373 467.287,207.212 468.095,212.066C468.913,216.919 469.529,221.801 469.973,226.696C470.443,231.526 470.713,236.396 470.823,241.266L470.82,241.28ZM470.63,241.41C470.128,236.531 469.534,231.669 468.857,226.824C468.155,221.982 467.341,217.161 466.419,212.366C465.485,207.571 464.369,202.818 463.167,198.091C461.934,193.372 460.593,188.682 459.075,184.048L459.071,184.036C458.89,183.483 459.192,182.888 459.745,182.707C459.793,182.691 459.848,182.678 459.895,182.669L479.487,179.335L489.3,177.771L499.134,176.32L499.154,176.317C499.402,176.28 499.635,176.422 499.724,176.646C501.46,181.033 502.965,185.503 504.356,190.002C505.714,194.512 506.902,199.069 507.978,203.656C510.118,212.825 511.669,222.186 512.092,231.63C512.11,232.039 511.847,232.397 511.477,232.52C508.152,233.622 504.777,234.499 501.405,235.36C498.025,236.192 494.636,236.97 491.235,237.681C487.832,238.385 484.424,239.06 481.015,239.718C477.596,240.33 474.182,240.963 470.749,241.502C470.692,241.511 470.639,241.473 470.63,241.417L470.65,241.407L470.63,241.41Z" style="fill-rule:nonzero;"/>
                <path d="M460.08,183.71C474.749,181.057 488.137,178.694 499.219,176.85C498.646,175.48 498.054,174.121 497.441,172.774C488.8,174.286 475.47,176.734 458.755,179.817C459.215,181.117 459.655,182.417 460.085,183.717L460.08,183.71Z" style="fill:white;fill-rule:nonzero;"/>
                <path d="M460.16,183.59C463.331,182.69 466.524,181.911 469.733,181.218C472.976,180.54 476.222,179.875 479.492,179.343C482.763,178.822 486.07,178.5 489.359,178.089C492.651,177.688 495.914,177.122 499.165,176.482L498.882,176.995C498.249,175.657 497.604,174.327 496.934,173.01L497.546,173.333C494.351,174.071 491.148,174.766 487.936,175.414C484.72,176.04 481.518,176.743 478.291,177.313C475.069,177.905 471.833,178.425 468.593,178.921C465.353,179.414 462.098,179.832 458.84,180.236L459.163,179.677C459.493,180.997 459.853,182.297 460.153,183.607L460.16,183.59ZM459.99,183.74L458.359,179.957C458.272,179.754 458.365,179.519 458.568,179.432C458.588,179.424 458.608,179.417 458.628,179.411L458.683,179.398C461.871,178.613 465.061,177.842 468.265,177.149C471.47,176.459 474.68,175.795 477.905,175.208C481.125,174.6 484.37,174.126 487.603,173.586C490.84,173.068 494.088,172.607 497.348,172.214L497.406,172.207C497.649,172.178 497.875,172.319 497.961,172.537C498.513,173.922 499.052,175.309 499.569,176.704L499.578,176.728C499.648,176.917 499.552,177.126 499.363,177.197C499.339,177.206 499.311,177.213 499.286,177.217C496.004,177.664 492.738,178.207 489.503,178.93C486.267,179.642 483.048,180.459 479.798,181.087C476.545,181.703 473.271,182.196 469.994,182.684C466.714,183.15 463.42,183.539 460.103,183.808C460.043,183.808 460.003,183.778 459.983,183.728L459.99,183.74Z" style="fill-rule:nonzero;"/>
                <path d="M411.14,256.87C432.158,252.095 453.061,247.563 470.866,243.698C470.824,242.929 470.776,242.165 470.728,241.402C453.845,244.921 433.493,248.933 410.795,253.658C410.905,254.718 411.025,255.788 411.135,256.868L411.14,256.87Z" style="fill:white;fill-rule:nonzero;"/>
                <path d="M411.23,256.74C416.086,255.289 420.977,253.982 425.888,252.77C430.841,251.558 435.803,250.387 440.799,249.371C445.801,248.382 450.835,247.546 455.843,246.588C460.846,245.606 465.819,244.489 470.764,243.241L470.397,243.722L470.193,241.434L470.834,241.923C465.88,243.141 460.912,244.304 455.93,245.386C450.945,246.454 445.969,247.572 440.97,248.567C435.971,249.566 430.961,250.506 425.943,251.406C423.434,251.858 420.922,252.293 418.405,252.706C415.891,253.133 413.375,253.555 410.851,253.935L411.075,253.626C411.145,254.666 411.195,255.706 411.235,256.746L411.23,256.74ZM411.04,256.88L410.513,253.689C410.491,253.553 410.576,253.424 410.706,253.389L410.738,253.381C413.204,252.722 415.681,252.11 418.16,251.507C420.636,250.891 423.118,250.301 425.603,249.732C430.573,248.588 435.554,247.499 440.548,246.473C445.54,245.441 450.559,244.538 455.564,243.574C460.572,242.623 465.593,241.742 470.62,240.881L470.656,240.875C470.938,240.827 471.207,241.017 471.255,241.299L471.262,241.371L471.333,243.675L471.334,243.701C471.341,243.926 471.181,244.117 470.966,244.156C465.949,245.071 460.961,246.116 456.003,247.303L441.173,251.053C436.212,252.225 431.222,253.255 426.225,254.261C421.226,255.257 416.21,256.178 411.163,256.971C411.093,256.971 411.043,256.931 411.033,256.871L411.04,256.88Z" style="fill-rule:nonzero;"/>
                <path d="M357.08,265.39C357.295,266.824 357.501,268.251 357.699,269.673C374.261,265.409 392.74,261.045 411.138,256.866C411.027,255.785 410.91,254.72 410.793,253.654C394.013,257.154 375.963,261.034 357.073,265.394L357.08,265.39Z" style="fill:white;fill-rule:nonzero;"/>
                <path d="M357.2,265.48C357.522,266.857 357.796,268.243 358.074,269.63L357.606,269.317C361.977,267.92 366.393,266.689 370.82,265.508C375.256,264.359 379.699,263.235 384.202,262.367C388.694,261.455 393.213,260.663 397.678,259.645C402.15,258.655 406.583,257.495 411.013,256.322L410.575,256.933L410.113,253.738L410.934,254.335C406.481,255.424 402.016,256.445 397.547,257.451C393.082,258.473 388.616,259.492 384.129,260.406C379.646,261.346 375.151,262.227 370.651,263.093C366.201,263.893 361.721,264.743 357.221,265.463L357.2,265.48ZM357.06,265.3C361.454,263.961 365.885,262.779 370.319,261.607C374.761,260.469 379.214,259.374 383.684,258.362C388.149,257.325 392.642,256.417 397.141,255.533C401.635,254.633 406.137,253.769 410.656,252.991L410.706,252.982C411.066,252.92 411.408,253.162 411.47,253.522L411.478,253.588L411.705,256.817L411.708,256.855C411.728,257.133 411.534,257.377 411.267,257.428C406.766,258.284 402.271,259.171 397.822,260.252C393.366,261.305 388.968,262.607 384.551,263.819C380.145,265.076 375.685,266.106 371.228,267.15C366.763,268.161 362.296,269.161 357.797,270.047L357.754,270.056C357.56,270.094 357.372,269.968 357.334,269.774L357.329,269.734C357.213,268.296 357.078,266.858 356.985,265.413C356.965,265.353 356.995,265.303 357.045,265.293L357.06,265.3Z" style="fill-rule:nonzero;"/>
                <path d="M497.44,172.78C493.696,164.551 489.217,156.767 484.002,149.593C482.389,147.375 479.474,146.935 476.935,147.196C466.629,148.254 456.114,149.293 445.591,150.346C450.739,159.764 455.133,169.535 458.755,179.823C475.475,176.743 488.805,174.293 497.445,172.783L497.44,172.78Z" style="fill:white;fill-rule:nonzero;"/>
                <path d="M497.28,172.7C494.7,167.872 491.987,163.145 489.058,158.564C487.588,156.25 486.043,153.987 484.462,151.753L483.268,150.109C482.902,149.628 482.494,149.253 481.994,148.941C481.002,148.323 479.756,148.054 478.489,147.99C477.839,147.958 477.236,147.998 476.531,148.058L474.468,148.201L470.339,148.485C467.588,148.681 464.832,148.827 462.084,149.06C456.588,149.508 451.105,150.093 445.636,150.816L446.004,150.119C447.358,152.454 448.688,154.808 449.964,157.192C451.235,159.578 452.425,162.008 453.584,164.453C454.723,166.908 455.802,169.39 456.835,171.892C457.858,174.397 458.868,176.912 459.758,179.469L458.56,178.775C464.999,177.555 471.465,176.476 477.937,175.432C481.173,174.91 484.418,174.436 487.664,173.967C490.844,173.477 494.054,173.067 497.264,172.687L497.28,172.7ZM497.46,172.88C494.264,173.626 491.068,174.364 487.862,175.047C484.659,175.743 481.456,176.445 478.246,177.103C471.825,178.419 465.4,179.716 458.95,180.874C458.428,180.968 457.925,180.664 457.752,180.18C456.853,177.657 455.97,175.127 454.998,172.63C454.036,170.129 453.018,167.649 451.958,165.185C450.919,162.713 449.811,160.269 448.687,157.831C447.569,155.39 446.406,152.967 445.177,150.576L445.164,150.552C445.048,150.324 445.137,150.045 445.364,149.928C445.422,149.899 445.484,149.882 445.545,149.878C451.049,149.503 456.539,148.996 462.016,148.346C464.754,148.029 467.485,147.624 470.218,147.265L474.319,146.713C475.688,146.554 477.016,146.269 478.537,146.28C480.013,146.288 481.566,146.585 482.935,147.42C483.61,147.828 484.243,148.396 484.693,149.026L485.902,150.748C487.483,153.03 488.969,155.376 490.365,157.773C493.155,162.567 495.559,167.579 497.533,172.742C497.554,172.796 497.528,172.857 497.474,172.878C497.474,172.818 497.464,172.818 497.464,172.828L497.46,172.88Z" style="fill-rule:nonzero;"/>
                <path d="M397.49,191.1C379.497,194.388 360.185,197.885 340.236,201.437C340.76,202.782 341.276,204.137 341.782,205.5C359.595,202.266 379.216,198.626 398.88,194.98C398.42,193.66 397.95,192.37 397.48,191.1L397.49,191.1Z" style="fill:white;fill-rule:nonzero;"/>
                <path d="M397.42,191.21C392.739,192.403 388.035,193.465 383.315,194.441C378.562,195.406 373.806,196.351 369.023,197.152C364.236,197.927 359.421,198.545 354.622,199.252C349.828,199.983 345.058,200.856 340.309,201.844L340.628,201.275L342.3,205.299L341.682,204.947C346.41,203.904 351.145,202.908 355.892,201.971C360.641,201.048 365.379,200.066 370.14,199.205C379.659,197.469 389.218,195.947 398.817,194.642L398.562,195.079L397.402,191.219L397.42,191.21ZM397.58,191.06C398.147,192.316 398.675,193.589 399.192,194.867C399.258,195.03 399.179,195.216 399.016,195.282L398.972,195.297L398.937,195.305C389.508,197.529 380.039,199.536 370.526,201.313C365.771,202.209 360.993,202.98 356.225,203.803C351.454,204.612 346.671,205.355 341.878,206.041L341.845,206.046C341.585,206.083 341.343,205.928 341.26,205.689L339.84,201.586L339.831,201.559C339.756,201.344 339.871,201.11 340.085,201.035C340.109,201.027 340.135,201.021 340.159,201.017C344.956,200.305 349.733,199.472 354.482,198.491C359.227,197.486 363.955,196.385 368.711,195.437C373.47,194.514 378.255,193.73 383.043,192.961C387.834,192.21 392.64,191.538 397.469,190.998C397.529,190.978 397.569,191.008 397.589,191.048L397.58,191.06Z" style="fill-rule:nonzero;"/>
                <path d="M398.88,194.98C379.216,198.626 359.596,202.266 341.782,205.5C344.851,213.764 347.6,222.349 350.015,231.033C353.094,242.109 355.361,253.909 357.083,265.399C375.968,261.037 394.022,257.155 410.796,253.663C408.326,230.943 404.566,211.513 398.886,194.983L398.88,194.98Z" style="fill:white;fill-rule:nonzero;"/>
                <path d="M398.81,195.09C394.116,196.146 389.413,197.157 384.704,198.131L370.477,201.017C365.729,201.955 360.977,202.867 356.221,203.755C351.468,204.658 346.704,205.512 341.933,206.319L342.57,205.201C344.3,210.081 345.86,215.017 347.32,219.978C348.762,224.943 350.122,229.933 351.394,234.941C352.635,239.959 353.813,244.991 354.826,250.06C355.854,255.125 356.819,260.204 357.671,265.304L356.951,264.813C365.842,262.576 374.763,260.459 383.708,258.454L397.13,255.468C401.604,254.472 406.095,253.554 410.579,252.607L409.732,253.772C409.218,248.809 408.613,243.858 407.95,238.915C407.295,233.971 406.54,229.04 405.656,224.133C404.76,219.228 403.822,214.327 402.666,209.473C401.536,204.663 400.266,199.863 398.816,195.103L398.81,195.09ZM398.97,194.94C400.753,199.618 402.304,204.39 403.653,209.218C404.988,214.049 406.201,218.919 407.202,223.833C409.233,233.655 410.738,243.58 411.857,253.54C411.919,254.091 411.542,254.593 411.01,254.705L384.104,260.301L357.212,265.97L357.191,265.974C356.875,266.041 356.565,265.839 356.498,265.523L356.491,265.48C355.809,260.371 355.052,255.269 354.11,250.199C353.145,245.135 352.091,240.084 350.767,235.101C349.455,230.114 347.902,225.196 346.256,220.311C344.616,215.424 342.846,210.586 340.99,205.785C340.825,205.357 341.037,204.876 341.465,204.711C341.51,204.693 341.556,204.68 341.602,204.671L341.627,204.666C346.377,203.745 351.132,202.859 355.897,202.017L370.191,199.499L384.509,197.105C389.284,196.323 394.066,195.575 398.857,194.874C398.917,194.854 398.967,194.884 398.977,194.924L398.97,194.94Z" style="fill-rule:nonzero;"/>
                <path d="M460.08,183.71C459.65,182.404 459.209,181.106 458.755,179.817C441.469,183.006 420.564,186.876 397.486,191.091C397.962,192.366 398.424,193.66 398.875,194.971C419.975,191.061 441.095,187.151 460.075,183.711L460.08,183.71Z" style="fill:white;fill-rule:nonzero;"/>
                <path d="M459.94,183.63L458.437,179.931L458.817,180.151C453.761,181.364 448.681,182.44 443.59,183.464C438.496,184.468 433.402,185.471 428.263,186.227C423.129,187.018 417.975,187.695 412.863,188.598C407.747,189.48 402.663,190.539 397.585,191.632L398,190.901C398.521,192.178 399.028,193.462 399.521,194.751L398.751,194.302C403.821,193.199 408.905,192.173 413.995,191.175C419.081,190.16 424.171,189.161 429.283,188.28C434.389,187.376 439.511,186.544 444.637,185.748C449.737,185.008 454.827,184.258 459.947,183.648L459.94,183.63ZM460.1,183.81C455.053,185.044 449.983,186.141 444.912,187.246C439.837,188.317 434.756,189.361 429.663,190.338C424.574,191.338 419.465,192.226 414.353,193.1C409.244,193.991 404.13,194.856 399.001,195.644L398.959,195.65C398.632,195.7 398.325,195.501 398.23,195.194C397.825,193.886 397.406,192.583 396.973,191.284L396.961,191.249C396.868,190.969 397.019,190.667 397.298,190.574C397.327,190.565 397.359,190.557 397.387,190.553C402.523,189.779 407.652,188.968 412.748,187.976C417.848,187.004 422.905,185.803 427.983,184.713C433.054,183.588 438.171,182.708 443.288,181.826C448.408,180.966 453.538,180.156 458.693,179.485L458.728,179.481C458.885,179.46 459.03,179.559 459.073,179.706C459.465,181.026 459.84,182.347 460.175,183.679C460.191,183.736 460.156,183.793 460.101,183.808L460.111,183.818L460.1,183.81Z" style="fill-rule:nonzero;"/>
                <path d="M471.02,275.5C491.015,270.392 506.503,266.177 509.551,264.653C511.003,254.678 511.578,244.634 511.309,234.694C502.621,236.798 488.22,239.929 470.867,243.696C471.407,253.766 471.467,264.346 471.017,275.506L471.02,275.5Z" style="fill:white;fill-rule:nonzero;"/>
                <path d="M471.13,275.36C474.269,274.354 477.416,273.382 480.571,272.448L490.183,269.656L499.795,266.908L504.588,265.531C506.156,265.046 507.817,264.622 509.234,264.019L508.85,264.55C509.286,262.093 509.673,259.626 510.007,257.15C510.346,254.674 510.599,252.186 510.756,249.692C511.09,244.704 511.087,239.694 510.802,234.707L511.427,235.186C508.085,236.077 504.749,236.989 501.392,237.806C498.038,238.639 494.679,239.446 491.312,240.216L481.214,242.536C477.842,243.282 474.468,244.015 471.084,244.703L471.893,243.641C472.14,248.957 472.171,254.28 472.053,259.595C471.893,264.865 471.633,270.125 471.123,275.365L471.13,275.36ZM470.92,275.5C470.829,270.191 470.772,264.894 470.583,259.603C470.426,254.312 470.167,249.03 469.839,243.756C469.807,243.251 470.149,242.809 470.626,242.699L470.648,242.694C474.012,241.917 477.386,241.185 480.761,240.461L490.902,238.355L511.189,234.205L511.221,234.199C511.489,234.144 511.749,234.317 511.804,234.584C511.811,234.617 511.814,234.652 511.814,234.684C511.799,239.709 511.638,244.723 511.386,249.734C511.251,252.239 511.104,254.743 510.936,257.25C510.763,259.756 510.536,262.26 510.25,264.759C510.224,264.992 510.08,265.183 509.885,265.281L509.866,265.29C508.249,266.082 506.697,266.613 505.093,267.151C503.501,267.686 501.898,268.171 500.29,268.634C497.073,269.554 493.845,270.415 490.604,271.228C487.365,272.047 484.116,272.821 480.857,273.555C477.598,274.291 474.327,274.971 471.043,275.601C470.986,275.612 470.932,275.575 470.921,275.518L470.92,275.5Z" style="fill-rule:nonzero;"/>
                <path d="M357.7,269.68C359.216,280.558 360.264,291.036 361.054,300.198L370.997,299.98C381.37,297.508 396.783,293.818 413.619,289.73C412.998,278.099 412.193,267.151 411.138,256.872C392.748,261.052 374.268,265.412 357.708,269.682L357.7,269.68Z" style="fill:white;fill-rule:nonzero;"/>
                <path d="M357.82,269.76C358.31,272.243 358.713,274.744 359.128,277.241C359.537,279.771 359.87,282.311 360.218,284.85C360.915,289.928 361.462,295.024 361.931,300.125L361.04,299.325C364.354,299.224 367.668,299.148 370.983,299.115L370.801,299.138C374.362,298.322 377.945,297.603 381.517,296.835C385.09,296.069 388.674,295.351 392.235,294.537C395.8,293.74 399.352,292.883 402.893,291.985C406.441,291.117 409.974,290.183 413.503,289.236L413.114,289.759C412.69,284.284 412.201,278.817 411.725,273.352C411.232,267.888 410.734,262.427 410.116,256.98L411.371,257.881C406.917,258.943 402.455,259.965 397.99,260.973C393.526,261.987 389.056,262.977 384.583,263.951L371.167,266.899L357.817,269.769L357.82,269.76ZM357.68,269.58C362.063,268.235 366.467,266.961 370.887,265.753C375.301,264.516 379.735,263.361 384.175,262.23C388.611,261.08 393.058,259.975 397.515,258.918C401.972,257.855 406.437,256.83 410.915,255.863L410.936,255.858C411.488,255.739 412.032,256.089 412.151,256.641C412.159,256.68 412.166,256.725 412.17,256.764C412.671,262.245 413.118,267.729 413.44,273.22C413.778,278.71 413.972,284.206 414.134,289.7L414.134,289.724C414.141,289.966 413.973,290.173 413.744,290.223C410.174,291 406.605,291.786 403.052,292.634C399.491,293.451 395.939,294.306 392.401,295.217C388.859,296.111 385.338,297.097 381.805,298.032C378.272,298.964 374.749,299.943 371.203,300.821C371.149,300.834 371.096,300.842 371.043,300.843L371.021,300.844C367.708,300.956 364.393,301.026 361.078,301.07L361.066,301.07C360.606,301.076 360.225,300.721 360.187,300.27L358.945,284.983L357.605,269.691C357.585,269.651 357.615,269.611 357.665,269.591L357.68,269.58Z" style="fill-rule:nonzero;"/>
                <path d="M470.86,243.7C453.055,247.565 432.152,252.097 411.134,256.872C412.189,267.151 412.994,278.099 413.615,289.73C432.683,285.1 453.562,279.962 471.013,275.504C471.473,264.344 471.413,253.764 470.863,243.704L470.86,243.7Z" style="fill:white;fill-rule:nonzero;"/>
                <path d="M470.77,243.83C465.881,245.137 460.975,246.37 456.058,247.546C451.107,248.761 446.144,249.923 441.175,251.054C436.204,252.18 431.237,253.32 426.243,254.335L411.248,257.334L411.613,256.825L414.207,289.7L413.486,289.163C418.244,287.875 423.01,286.622 427.781,285.388L442.1,281.718L456.429,278.093L470.794,274.616L470.104,275.469C470.407,270.186 470.564,264.897 470.704,259.604C470.768,256.957 470.774,254.31 470.797,251.66C470.817,249.07 470.777,246.46 470.767,243.85L470.77,243.83ZM470.96,243.69C471.23,246.332 471.414,248.981 471.586,251.631C471.757,254.282 471.846,256.937 471.93,259.593C472.109,264.905 472.055,270.222 471.932,275.536C471.922,275.941 471.646,276.277 471.275,276.38L471.242,276.389C466.489,277.702 461.714,278.925 456.941,280.16C452.161,281.361 447.377,282.547 442.578,283.675L428.185,287.067C423.382,288.175 418.573,289.256 413.754,290.294L413.73,290.299C413.419,290.366 413.112,290.168 413.045,289.857C413.038,289.825 413.034,289.789 413.033,289.757L412.726,281.527C412.622,278.783 412.421,276.046 412.248,273.306C412.078,270.566 411.848,267.831 411.589,265.098C411.319,262.367 411.022,259.638 410.665,256.916C410.634,256.683 410.785,256.468 411.008,256.412L411.031,256.407L425.871,252.695C430.825,251.492 435.812,250.432 440.798,249.369C445.784,248.312 450.78,247.298 455.789,246.345C460.792,245.362 465.808,244.442 470.84,243.598C470.897,243.588 470.951,243.627 470.96,243.683L470.95,243.693L470.96,243.69Z" style="fill-rule:nonzero;"/>
                <path d="M470.73,241.4C470.778,242.163 470.826,242.927 470.868,243.696C488.222,239.929 502.622,236.797 511.31,234.694C511.283,233.684 511.245,232.675 511.2,231.667C502.42,234.537 488.49,237.697 470.73,241.397L470.73,241.4Z" style="fill:white;fill-rule:nonzero;"/>
                <path d="M470.84,241.49C470.963,242.22 471.073,242.951 471.168,243.683L470.8,243.404C474.113,242.392 477.455,241.513 480.812,240.7C484.171,239.897 487.527,239.087 490.935,238.513C494.338,237.915 497.767,237.433 501.146,236.725C504.527,236.028 507.871,235.156 511.183,234.185L510.78,234.712L510.525,231.701L511.406,232.31C508.134,233.549 504.791,234.554 501.434,235.48C498.08,236.418 494.709,237.285 491.308,238.007C487.912,238.75 484.496,239.398 481.072,239.992C477.682,240.542 474.282,241.082 470.852,241.482L470.84,241.49ZM470.71,241.3C474.042,240.28 477.4,239.397 480.753,238.495C484.113,237.624 487.475,236.774 490.842,235.96C494.203,235.125 497.583,234.377 500.949,233.584C504.311,232.772 507.663,231.935 510.991,231.026L511.058,231.007C511.401,230.913 511.755,231.115 511.849,231.458C511.865,231.516 511.871,231.578 511.871,231.635L511.837,234.678L511.837,234.723C511.834,234.963 511.661,235.161 511.434,235.204C508.035,235.855 504.646,236.523 501.29,237.347C497.934,238.159 494.62,239.17 491.278,240.056C487.942,240.966 484.552,241.629 481.164,242.295C477.772,242.951 474.367,243.538 470.932,243.991L470.887,243.997C470.73,244.018 470.586,243.908 470.566,243.751L470.564,243.711C470.571,242.943 470.592,242.173 470.63,241.403C470.61,241.363 470.64,241.323 470.69,241.303L470.71,241.3Z" style="fill-rule:nonzero;"/>
                <path d="M361.06,300.2L357.639,303.156C357.639,303.156 362.714,301.958 371.004,299.982L361.064,300.192L361.06,300.2Z" style="fill:white;fill-rule:nonzero;"/>
                <path d="M361.1,300.3C360.275,301.631 359.264,302.747 358.195,303.795L357.44,302.317C358.537,301.984 359.651,301.72 360.815,301.671C361.976,301.608 363.142,301.563 364.249,301.269C365.363,301.007 366.436,300.569 367.507,300.129C368.575,299.675 369.675,299.351 370.772,299.015L371.022,300.959C370.194,301.022 369.367,301.094 368.538,301.102C367.709,301.111 366.88,301.088 366.049,301.024C365.219,300.978 364.388,300.888 363.557,300.776C362.727,300.666 361.907,300.526 361.087,300.306L361.1,300.3ZM361.05,300.1C361.873,299.838 362.698,299.662 363.524,299.507C364.35,299.358 365.176,299.232 366.003,299.15C366.83,299.049 367.657,298.991 368.486,298.963C369.314,298.934 370.144,298.97 370.974,298.996L371.088,299C371.628,299.017 372.052,299.468 372.035,300.008C372.02,300.48 371.672,300.863 371.224,300.941C370.094,301.135 368.966,301.342 367.807,301.418C366.652,301.509 365.497,301.6 364.384,301.867C363.263,302.101 362.202,302.586 361.135,303.051C360.072,303.53 358.958,303.794 357.827,303.988L357.722,304.007C357.265,304.085 356.831,303.778 356.753,303.32C356.698,303.002 356.832,302.694 357.073,302.51C358.275,301.597 359.535,300.749 360.987,300.124L361,300.119C361.03,300.129 361.05,300.119 361.06,300.119L361.05,300.1Z" style="fill-rule:nonzero;"/>
                <path d="M326.44,172.42C331.57,181.161 336.167,191.002 340.235,201.437C360.184,197.885 379.496,194.388 397.489,191.1C392.69,178.231 386.621,167.184 378.929,157.779C358.265,160.531 339.649,163.689 325.145,167.591C324.239,167.835 323.513,168.156 322.939,168.533C324.209,169.063 325.319,170.223 326.439,172.423L326.44,172.42Z" style="fill:white;fill-rule:nonzero;"/>
                <path d="M326.52,172.36C327.892,174.663 329.184,177.017 330.48,179.365C331.75,181.728 333.04,184.084 334.25,186.483C336.667,191.28 338.987,196.14 341.013,201.123L340.083,200.601C344.844,199.688 349.613,198.815 354.399,198.036L368.771,195.781C373.566,195.05 378.35,194.26 383.121,193.401C387.884,192.496 392.657,191.645 397.405,190.654L397.068,191.247C394.745,185.316 391.963,179.582 388.857,174.056C385.711,168.553 382.189,163.268 378.136,158.416L379.059,158.781L364.947,160.831C360.242,161.501 355.551,162.256 350.858,162.992C346.167,163.739 341.469,164.463 336.79,165.31C334.452,165.739 332.12,166.2 329.794,166.694C328.631,166.94 327.469,167.194 326.315,167.48C325.157,167.761 323.998,168.004 323.011,168.64L322.989,168.399C323.836,168.763 324.541,169.383 325.102,170.087C325.682,170.787 326.132,171.567 326.532,172.357L326.52,172.36ZM326.35,172.46C325.938,171.678 325.484,170.914 324.922,170.239C324.367,169.562 323.686,168.985 322.886,168.654C322.816,168.625 322.783,168.545 322.812,168.475C322.822,168.45 322.843,168.427 322.864,168.412C323.875,167.71 325.084,167.411 326.216,167.092L329.658,166.124C331.955,165.486 334.262,164.885 336.576,164.306C341.202,163.142 345.854,162.069 350.536,161.157C355.216,160.235 359.924,159.471 364.631,158.719C369.345,158.008 374.064,157.339 378.794,156.763L378.816,156.761C379.172,156.718 379.508,156.868 379.718,157.129C383.752,162.165 387.315,167.572 390.305,173.268C393.341,178.942 395.763,184.908 397.906,190.94L397.912,190.957C397.993,191.184 397.874,191.433 397.647,191.514C397.622,191.523 397.594,191.53 397.569,191.534C392.777,192.286 388.011,193.174 383.234,194.002C378.465,194.877 373.708,195.815 368.961,196.808C364.21,197.78 359.462,198.775 354.703,199.706C349.944,200.64 345.167,201.473 340.383,202.26L340.36,202.264C339.964,202.329 339.588,202.1 339.453,201.738C337.582,196.733 335.708,191.72 333.557,186.817C332.482,184.367 331.395,181.917 330.181,179.53C328.993,177.128 327.695,174.787 326.354,172.466L326.374,172.456L326.35,172.46Z" style="fill-rule:nonzero;"/>
                <path d="M458.76,179.82C455.138,169.532 450.744,159.761 445.596,150.343C422.697,152.635 399.772,154.998 378.931,157.773C386.623,167.179 392.692,178.226 397.491,191.094C420.561,186.884 441.461,183.014 458.751,179.824L458.76,179.82Z" style="fill:white;fill-rule:nonzero;"/>
                <path d="M458.62,179.74C457.615,177.281 456.618,174.83 455.55,172.405C454.455,169.948 453.385,167.485 452.227,165.061C449.915,160.213 447.457,155.44 444.847,150.754L445.683,151.195C440.124,151.786 434.569,152.391 428.999,152.873L412.288,154.272C406.716,154.734 401.156,155.307 395.61,156.003L387.296,157.077L378.986,158.307L379.33,157.436C381.413,159.88 383.38,162.427 385.224,165.062C387.053,167.708 388.753,170.443 390.34,173.241C393.495,178.851 396.153,184.729 398.453,190.731L397.287,190.069C402.389,189.111 407.491,188.154 412.606,187.263C417.715,186.345 422.834,185.477 427.954,184.617C433.071,183.74 438.192,182.885 443.323,182.08C448.413,181.26 453.513,180.49 458.613,179.75L458.62,179.74ZM458.78,179.92C453.712,181.063 448.635,182.166 443.551,183.218C438.472,184.298 433.382,185.327 428.288,186.33C423.197,187.351 418.104,188.362 413.001,189.318C407.903,190.301 402.792,191.215 397.68,192.123L397.666,192.125C397.164,192.214 396.682,191.924 396.514,191.46C394.348,185.499 391.801,179.677 388.815,174.086C387.333,171.285 385.73,168.548 384.009,165.885C382.304,163.212 380.476,160.614 378.517,158.114L378.503,158.096C378.322,157.866 378.363,157.533 378.593,157.352C378.673,157.289 378.767,157.253 378.861,157.243L395.534,155.372C401.091,154.751 406.64,154.071 412.182,153.322C417.727,152.593 423.273,151.86 428.825,151.196C434.378,150.532 439.945,150.016 445.512,149.493L445.524,149.492C445.873,149.459 446.192,149.644 446.348,149.934C448.906,154.7 451.245,159.582 453.328,164.569C454.368,167.063 455.395,169.561 456.296,172.108C457.206,174.649 458.087,177.204 458.855,179.787C458.873,179.842 458.842,179.9 458.788,179.917L458.778,179.907L458.78,179.92Z" style="fill-rule:nonzero;"/>
                <path d="M357.7,269.68C357.502,268.258 357.296,266.831 357.081,265.397C355.359,253.908 353.092,242.107 350.013,231.031C347.598,222.347 344.849,213.761 341.78,205.498C341.274,204.134 340.759,202.78 340.234,201.435C336.166,190.999 331.569,181.159 326.439,172.418C325.315,170.223 324.212,169.069 322.939,168.531C320.491,170.14 320.845,172.774 322.054,174.826C342.084,208.876 354.885,262.718 357.633,303.156L361.054,300.2C360.254,291.04 359.214,280.57 357.694,269.69L357.7,269.68Z" style="fill:white;fill-rule:nonzero;"/>
                <path d="M357.6,269.69C356.37,260.766 354.694,251.903 352.559,243.162C350.456,234.416 347.729,225.845 344.948,217.3C342.157,208.759 339.058,200.321 335.602,192.03C333.853,187.893 331.998,183.798 329.981,179.782C328.975,177.773 327.931,175.782 326.817,173.83C326.539,173.333 326.26,172.874 325.984,172.345C325.727,171.854 325.454,171.383 325.145,170.932C324.534,170.036 323.769,169.246 322.806,168.834L323.122,168.805C322.544,169.179 322.054,169.675 321.762,170.277C321.466,170.877 321.377,171.57 321.455,172.255C321.574,173.66 322.452,174.859 323.183,176.142C324.663,178.697 326.062,181.292 327.404,183.92C330.079,189.176 332.587,194.521 334.862,199.966C339.456,210.839 343.258,222.043 346.442,233.409C348.037,239.093 349.493,244.814 350.817,250.567C352.139,256.321 353.254,262.12 354.275,267.934C356.322,279.559 357.747,291.308 358.28,303.103L357.206,302.655L360.694,299.776L360.506,300.238C360.18,295.133 359.794,290.032 359.348,284.934C358.878,279.834 358.288,274.754 357.598,269.684L357.6,269.69ZM357.8,269.66C358.519,274.728 359.175,279.806 359.804,284.887C360.464,289.965 361.047,295.054 361.601,300.146C361.62,300.318 361.553,300.48 361.434,300.589L361.413,300.608L358.059,303.641C357.795,303.878 357.389,303.859 357.151,303.595C357.054,303.488 357,303.357 356.987,303.224L356.984,303.193C355.898,291.494 354.279,279.858 352.248,268.293C351.226,262.511 350.029,256.762 348.776,251.027C347.525,245.291 346.142,239.583 344.619,233.912C341.558,222.576 338.037,211.357 333.816,200.391C331.681,194.92 329.391,189.501 326.766,184.243C325.456,181.614 324.085,179.012 322.64,176.459C322.275,175.811 321.905,175.203 321.545,174.523C321.206,173.839 320.943,173.106 320.845,172.328C320.745,171.555 320.834,170.727 321.182,169.998C321.525,169.266 322.105,168.672 322.754,168.242C322.85,168.179 322.972,168.173 323.071,168.213C324.204,168.681 325.073,169.576 325.736,170.52C326.07,170.994 326.37,171.496 326.641,171.999C326.891,172.466 327.203,172.967 327.481,173.449C328.61,175.404 329.726,177.367 330.807,179.351C332.965,183.319 334.968,187.373 336.855,191.478C340.65,199.686 343.833,208.161 346.63,216.75C349.394,225.346 351.689,234.104 353.437,242.965C355.177,251.825 356.527,260.745 357.787,269.665L357.8,269.66Z" style="fill-rule:nonzero;"/>
                <g>
                    <g>
                        <path d="M433,357.78C433.006,357.857 433.024,357.933 433.024,358.011C433.024,361.272 427.447,363.915 420.566,363.915C413.686,363.915 408.108,361.271 408.108,358.011C408.108,357.2 408.454,356.429 409.076,355.727C406.22,356.892 404.402,358.611 404.303,360.606C404.106,364.583 410.823,368.148 419.305,368.568C427.787,368.988 435.018,366.11 435.021,362.128C435.031,360.348 434.291,358.918 433.001,357.778L433,357.78Z" style="fill:rgb(50,92,170);fill-rule:nonzero;stroke:black;stroke-width:2px;"/>
                        <path d="M420.57,363.92C427.45,363.92 433.028,361.276 433.028,358.016C433.028,357.938 433.009,357.862 433.004,357.785C430.442,355.523 425.674,354.449 420.024,354.169C415.794,353.96 411.924,354.572 409.082,355.732C408.459,356.434 408.114,357.206 408.114,358.016C408.104,361.286 413.684,363.926 420.564,363.926L420.57,363.92Z" style="fill:rgb(50,92,170);fill-rule:nonzero;stroke:black;stroke-width:2px;"/>
                        <path d="M483.97,354.63C483.977,354.742 483.997,354.852 483.997,354.965C483.997,359.666 477.793,363.478 470.141,363.478C462.488,363.478 456.284,359.666 456.284,354.965C456.284,353.797 456.669,352.684 457.361,351.67C454.184,353.351 452.162,355.829 452.052,358.705C451.832,364.439 459.304,369.581 468.739,370.187C478.174,370.791 486.217,366.641 486.22,360.898C486.22,358.328 485.4,356.268 483.97,354.638L483.97,354.63Z" style="fill:rgb(74,177,72);fill-rule:nonzero;stroke:black;stroke-width:2px;"/>
                        <path d="M470.14,363.47C477.792,363.47 483.996,359.658 483.996,354.957C483.996,354.844 483.975,354.734 483.969,354.622C481.119,351.36 475.817,349.812 469.531,349.408C464.826,349.105 460.521,349.989 457.359,351.662C456.667,352.676 456.282,353.789 456.282,354.957C456.292,359.657 462.492,363.467 470.142,363.467L470.14,363.47Z" style="fill:rgb(74,177,72);fill-rule:nonzero;stroke:black;stroke-width:2px;"/>
                    </g>
                    <path d="M364.32,221.83C364.32,221.83 362.1,216.747 364.32,214.968C366.54,213.189 370.676,217.001 370.676,217.001C380.518,212.172 390.939,214.459 396.022,223.863C401.105,233.267 400.597,249.298 394.497,243.697C389.414,251.313 375.689,253.139 367.302,244.855C358.915,236.571 360.442,228.425 364.322,221.835L364.32,221.83Z" style="fill:rgb(204,220,68);fill-rule:nonzero;stroke:black;stroke-width:2px;"/>
                    <path d="M434.8,212.17C438.714,198.293 457.593,194.753 458.755,209.125C460.08,225.519 438.969,235.553 439.223,240.382C441.227,227.42 415.566,230.94 412.137,219.513C408.708,208.086 427.327,201.243 434.797,212.173L434.8,212.17Z" style="fill:rgb(208,32,40);fill-rule:nonzero;stroke:black;stroke-width:2px;"/>
                    <g>
                        <path d="M473.54,217.79C473.298,218.406 473.206,219.033 473.307,219.655C473.828,222.874 479.062,224.705 484.995,223.744C490.927,222.784 495.314,219.395 494.792,216.175C494.745,215.884 494.65,215.607 494.529,215.34C492.719,214.563 490.413,214.073 487.835,213.951C482.405,218.421 476.485,220.071 473.525,217.791L473.54,217.79Z" style="fill:rgb(230,174,34);fill-rule:nonzero;stroke:black;stroke-width:1px;"/>
                        <path d="M502.11,206.6C500.838,204.907 498.143,204.57 494.936,205.388C493.772,207.612 492.095,209.908 489.959,212.038C489.893,212.104 489.823,212.164 489.757,212.23C489.128,212.845 488.486,213.421 487.836,213.958C490.414,214.08 492.721,214.57 494.53,215.347C496.136,216.037 497.345,216.95 498,218.028C502.18,213.808 504,209.118 502.11,206.598L502.11,206.6Z" style="fill:rgb(230,174,34);fill-rule:nonzero;stroke:black;stroke-width:1px;"/>
                        <path d="M506.95,204.36C505.096,201.894 500.24,202.279 495.151,204.972C495.083,205.11 495.004,205.249 494.931,205.388C498.138,204.571 500.832,204.907 502.105,206.6C504.001,209.117 502.172,213.816 497.996,218.027C498.25,218.445 498.418,218.889 498.494,219.353C498.927,219.063 499.359,218.773 499.786,218.451C506.056,213.731 509.266,207.411 506.956,204.351L506.95,204.36Z" style="fill:rgb(230,174,34);fill-rule:nonzero;stroke:black;stroke-width:1px;"/>
                        <path d="M498.5,219.35C498.424,218.886 498.256,218.442 498.002,218.024C497.348,216.946 496.139,216.033 494.532,215.343C494.653,215.61 494.748,215.887 494.795,216.178C495.317,219.398 490.93,222.787 484.998,223.747C479.065,224.708 473.832,222.877 473.31,219.658C473.209,219.036 473.301,218.409 473.543,217.793C473.441,217.715 473.342,217.637 473.248,217.55C471.244,218.974 470.111,220.675 470.283,222.395C470.666,226.215 477.302,228.679 485.105,227.896C492.907,227.115 498.923,223.384 498.54,219.563C498.53,219.483 498.51,219.413 498.5,219.343L498.5,219.35Z" style="fill:rgb(230,174,34);fill-rule:nonzero;stroke:black;stroke-width:1px;"/>
                        <path d="M486.6,210.07C491.71,204.974 493.74,198.721 491.13,196.105C490.051,195.022 488.346,194.734 486.356,195.128C483.792,196.272 481.073,198.136 478.579,200.624C474.433,204.759 471.981,209.519 471.773,213.153C471.961,213.69 472.233,214.171 472.623,214.561C475.233,217.181 481.493,215.171 486.603,210.071L486.6,210.07Z" style="fill:rgb(230,174,34);fill-rule:nonzero;stroke:black;stroke-width:1px;"/>
                        <path d="M495.42,195.21C493.552,193.335 490.124,193.447 486.359,195.126C488.349,194.732 490.054,195.021 491.133,196.103C493.742,198.719 491.713,204.972 486.603,210.068C481.492,215.165 475.234,217.175 472.625,214.559C472.235,214.168 471.964,213.687 471.775,213.151C471.674,214.914 472.094,216.416 473.121,217.445C473.16,217.485 473.208,217.512 473.249,217.55C473.343,217.637 473.442,217.715 473.544,217.793C476.502,220.073 482.426,218.423 487.838,213.954C488.488,213.417 489.13,212.841 489.759,212.226C489.825,212.16 489.895,212.101 489.961,212.034C492.097,209.904 493.774,207.608 494.938,205.384C495.01,205.245 495.089,205.106 495.158,204.968C497.158,200.938 497.408,197.198 495.428,195.208L495.42,195.21Z" style="fill:rgb(230,174,34);fill-rule:nonzero;stroke:black;stroke-width:1px;"/>
                    </g>
                </g>
                <g>
                    <path d="M548.22,213.94C575.747,209.231 570.343,211.303 571.792,195.366C573.15,180.428 576.735,163.899 579.268,127.287C575.385,127.891 570.978,127.998 566.351,127.494C563.45,127.178 560.687,126.643 558.123,125.939C557.642,145.014 553.682,191.744 553.682,191.744L516.744,197.021C518.396,204.058 519.682,211.249 520.673,218.52C525.193,217.81 533.483,216.46 548.223,213.94L548.22,213.94Z" style="fill:none;fill-rule:nonzero;stroke:black;stroke-width:2px;"/>
                    <path d="M520.67,218.52C519.679,211.249 518.394,204.059 516.741,197.021C506.948,155.317 484.071,119.118 430.399,105.158C419.479,102.318 347.965,108.716 292.219,118.798C236.473,128.88 212.56,134.856 212.732,140.456C234.228,130.599 346.362,144.364 346.362,365.576L524.282,312.133C523.822,284.003 525.042,250.513 520.672,218.513L520.67,218.52Z" style="fill:none;fill-rule:nonzero;stroke:black;stroke-width:2px;"/>
                    <path d="M448.78,401.09L621.64,340.7L524.29,312.13L346.36,365.57L448.78,401.09Z" style="fill:none;fill-rule:nonzero;stroke:black;stroke-width:2px;"/>
                    <path d="M448.78,401.09L346.36,365.575C346.36,144.365 234.22,130.595 212.73,140.455C212.73,140.455 213.822,176.099 215.302,224.172C218.203,318.413 222.594,460.432 223.17,475.412C224.04,498.033 218.3,501.774 240.202,510.618C262.104,519.462 344.972,551.365 446.642,575.365C448.115,569.88 449.081,559.582 449.689,546.633C452.109,494.973 448.779,401.073 448.779,401.073L448.78,401.09ZM277.03,191.81C301.844,234.415 327.126,252.674 327.126,252.674L328.999,294.811C314.953,298.088 298.567,297.639 298.567,297.639C282.649,287.789 267.198,276.084 264.389,269.061C261.58,262.038 248.939,199.301 248.939,199.301L277.029,191.811L277.03,191.81Z" style="fill:none;fill-rule:nonzero;stroke:black;stroke-width:2px;"/>
                    <path d="M621.64,340.7L448.79,401.089C448.79,401.089 452.113,494.993 449.692,546.629C449.085,559.578 448.118,569.876 446.645,575.361C484.311,562.695 590.315,518.028 604.975,511.361C619.635,504.694 619.095,502.692 619.538,491.487C619.981,480.282 621.252,460.344 622.138,423.373C622.808,395.513 623.008,364.343 621.648,340.693L621.64,340.7Z" style="fill:none;fill-rule:nonzero;stroke:black;stroke-width:2px;"/>
                    <path d="M327.12,252.68L297.156,259.235L298.561,297.645C298.561,297.645 314.947,298.095 328.993,294.817L327.123,252.677L327.12,252.68Z" style="fill:none;fill-rule:nonzero;stroke:black;stroke-width:2px;"/>
                    <path d="M297.16,259.23L327.124,252.675C327.124,252.675 301.842,234.416 277.028,191.811L248.937,199.302C270.017,235.342 297.167,259.222 297.167,259.222L297.16,259.23ZM278.44,214.4L302.565,247.803L297.369,250.216L273.75,215.513L278.45,214.403L278.44,214.4Z" style="fill:none;fill-rule:nonzero;stroke:black;stroke-width:2px;"/>
                    <path d="M297.16,259.23C297.16,259.23 270.005,235.353 248.937,199.302C227.869,163.251 261.578,262.039 264.387,269.062C267.196,276.085 282.646,287.79 298.565,297.64L297.155,259.23L297.16,259.23Z" style="fill:none;fill-rule:nonzero;stroke:black;stroke-width:2px;"/>
                    <path d="M302.57,247.81L278.44,214.4L273.75,215.52L297.37,250.22L302.57,247.81Z" style="fill:none;fill-rule:nonzero;stroke:black;stroke-width:2px;"/>
                    <path d="M585.49,108.93C585.54,108.475 585.507,108.021 585.415,107.571C584.26,109.655 583.11,111.577 581.997,113.344C584.007,112.214 585.297,110.704 585.487,108.934L585.49,108.93Z" style="fill:none;fill-rule:nonzero;stroke:black;stroke-width:2px;"/>
                    <path d="M553.94,105.49C553.805,106.732 554.234,107.965 555.086,109.122C554.823,107.642 554.527,106.084 554.199,104.428C554.069,104.768 553.979,105.118 553.939,105.488L553.94,105.49Z" style="fill:none;fill-rule:nonzero;stroke:black;stroke-width:2px;"/>
                    <path d="M585.68,107.09C585.593,107.248 585.506,107.415 585.42,107.571C585.512,108.021 585.545,108.475 585.495,108.93C585.303,110.701 584.013,112.213 582.002,113.344C578.914,115.08 574.11,115.911 568.835,115.336C562.531,114.649 557.317,112.151 555.09,109.125C554.237,107.967 553.809,106.734 553.944,105.493C553.984,105.128 554.074,104.774 554.204,104.431C554.104,103.93 554.001,103.416 553.895,102.896C546.866,104.437 542.013,107.737 541.546,112.024C540.94,117.593 547.916,123.132 558.123,125.937C560.686,126.641 563.449,127.176 566.351,127.492C570.978,127.996 575.385,127.889 579.268,127.285C587.517,126.002 593.388,122.468 593.904,117.73C594.304,113.86 591.074,110.01 585.664,107.08L585.68,107.09Z" style="fill:none;fill-rule:nonzero;stroke:black;stroke-width:2px;"/>
                    <path d="M573.8,28.195C551.8,28.445 544.093,49.695 547.696,70.945C550.072,84.954 552.29,95.002 553.885,102.894C553.99,103.414 554.094,103.928 554.194,104.429C554.522,106.085 554.818,107.643 555.081,109.123C557.309,112.149 562.522,114.648 568.826,115.334C574.101,115.909 578.905,115.079 581.993,113.342C583.106,111.575 584.256,109.654 585.411,107.569C585.497,107.412 585.584,107.246 585.671,107.088C591.365,96.699 597.002,82.813 597.8,68.445C598.78,50.453 595.78,27.953 573.78,28.203L573.8,28.195Z" style="fill:none;fill-rule:nonzero;stroke:black;stroke-width:2px;"/>
                    <path d="M465.93,463.75L465.93,560.04L556.91,524.28L557.03,518.27L557.41,499.52L558.68,436.84L465.93,463.75Z" style="fill:none;fill-rule:nonzero;stroke:black;stroke-width:2px;"/>
                    <path d="M446.64,575.36C448.113,569.875 449.079,559.577 449.687,546.628C452.108,494.989 448.785,401.088 448.785,401.088" style="fill:none;fill-rule:nonzero;stroke:black;stroke-width:2px;"/>
                    <path d="M505.72,452.21C506.051,484.302 537.105,518.074 551.966,526.231" style="fill:none;fill-rule:nonzero;stroke:black;stroke-width:2px;"/>
                </g>
                <path d="M375.3,239.22C376.715,240.163 377.081,240.321 377.396,240.006" style="fill:none;fill-rule:nonzero;stroke:black;stroke-width:1px;"/>
                <path d="M380.85,239.22C381.269,238.801 381.688,239.053 381.846,239.687" style="fill:none;fill-rule:nonzero;stroke:black;stroke-width:1px;"/>
                <path d="M385.66,237.8C386.408,238.586 387.141,238.796 387.246,238.01" style="fill:none;fill-rule:nonzero;stroke:black;stroke-width:1px;"/>
                <path d="M382.27,243.88C382.479,243.828 383.161,243.618 383.108,244.718" style="fill:none;fill-rule:nonzero;stroke:black;stroke-width:1px;"/>
            </g>
        </g>
    </g>
</svg>
